<svg xmlns="http://www.w3.org/2000/svg" viewBox="0 0 100 100" width="100" height="100">
  <rect width="100" height="100" rx="12" fill="#e8e1d8"/>
  <g transform="translate(50,52) scale(0.072)" fill="#6b5843">
    <path d="M500,500 C430,500 300,580 300,700 C300,800 380,850 500,850 C620,850 700,800 700,700 C700,580 570,500 500,500 Z"/>
    <ellipse cx="250" cy="480" rx="90" ry="120" transform="rotate(-15 250 480)"/>
    <ellipse cx="380" cy="300" rx="85" ry="115" transform="rotate(-5 380 300)"/>
    <ellipse cx="620" cy="300" rx="85" ry="115" transform="rotate(5 620 300)"/>
    <ellipse cx="750" cy="480" rx="90" ry="120" transform="rotate(15 750 480)"/>
  </g>
</svg>
